<svg width="42" height="42" viewBox="0 0 42 42" fill="none" xmlns="http://www.w3.org/2000/svg">
<circle cx="21" cy="21" r="20.5" stroke="black"/>
<path d="M13.4198 15.1598C13.4198 13.3385 14.0568 11.5635 15.2139 10.1618C15.4634 9.85926 15.4207 9.41177 15.1182 9.16228C14.8159 8.91304 14.3684 8.95549 14.1186 9.25804C12.7524 10.9137 12 13.0095 12 15.1598C12 17.3289 12.7643 19.439 14.152 21.1018C15.327 22.5095 15.9743 24.2964 15.9743 26.1334C15.9743 27.9547 15.3371 29.7296 14.1802 31.1311C13.9307 31.4337 13.9735 31.8812 14.276 32.1307C14.4083 32.2399 14.5682 32.2932 14.7276 32.2932C14.9321 32.2932 15.1353 32.2052 15.2758 32.0351C16.6421 30.3795 17.3947 28.2837 17.3947 26.1334C17.3947 23.9643 16.6304 21.8542 15.2427 20.1913C14.0671 18.7839 13.4198 16.9971 13.4198 15.1598Z" fill="black"/>
<path d="M19.3076 15.1598C19.3076 13.3385 19.9448 11.5635 21.1017 10.1618C21.3512 9.85926 21.3085 9.41177 21.0059 9.16228C20.7036 8.91304 20.2561 8.95549 20.0064 9.25804C18.6401 10.9137 17.8875 13.0095 17.8875 15.1598C17.8875 17.3289 18.6518 19.439 20.0395 21.1018C21.2145 22.5095 21.8618 24.2964 21.8618 26.1334C21.8618 27.9547 21.2249 29.7296 20.0677 31.1311C19.8182 31.4337 19.8609 31.8812 20.1635 32.1307C20.296 32.2399 20.4559 32.2932 20.6151 32.2932C20.8196 32.2932 21.0227 32.2052 21.1633 32.0351C22.5296 30.3795 23.2822 28.2837 23.2822 26.1334C23.2822 23.9643 22.5179 21.8542 21.1302 20.1913C19.9549 18.7839 19.3076 16.9971 19.3076 15.1598Z" fill="black"/>
<path d="M27.0177 20.1916C25.8426 18.7842 25.1953 16.9971 25.1953 15.16C25.1953 13.3387 25.8325 11.5638 26.9894 10.1621C27.2389 9.85951 27.1962 9.41202 26.8937 9.16252C26.5914 8.91329 26.1439 8.95573 25.8941 9.25828C24.5279 10.9139 23.7752 13.0098 23.7752 15.16C23.7752 17.3291 24.5395 19.4392 25.9273 21.1021C27.1023 22.5098 27.7496 24.2966 27.7496 26.1337C27.7496 27.9549 27.1124 29.7299 25.9555 31.1314C25.706 31.4339 25.7487 31.8814 26.0512 32.1309C26.1838 32.2399 26.3437 32.2932 26.5029 32.2932C26.7073 32.2932 26.9105 32.2052 27.051 32.0351C28.4173 30.3795 29.1699 28.2836 29.1699 26.1334C29.1697 23.9643 28.4054 21.8542 27.0177 20.1916Z" fill="black"/>
</svg>
