<svg width="42" height="42" viewBox="0 0 42 42" fill="none" xmlns="http://www.w3.org/2000/svg">
<circle cx="21" cy="21" r="20.5" stroke="black"/>
<path d="M21 9C14.3803 9 9 14.3803 9 21C9 27.6197 14.3803 33 21 33C27.6197 33 33 27.6197 33 21C33 14.3803 27.6197 9 21 9ZM21 10.2973C26.9186 10.2973 31.7027 15.0814 31.7027 21C31.7027 26.9186 26.9186 31.7027 21 31.7027C15.0814 31.7027 10.2973 26.9186 10.2973 21C10.2973 15.0814 15.0814 10.2973 21 10.2973ZM21 12.5676C20.6418 12.5676 20.3514 12.858 20.3514 13.2162V21C20.3514 21.2399 20.4821 21.4452 20.6757 21.5574C22.7298 22.7423 24.7989 23.9366 26.8581 25.125C27.1684 25.3041 27.5608 25.2021 27.7398 24.8919C27.919 24.5816 27.817 24.1892 27.5068 24.0101L21.6486 20.625V13.2162C21.6486 12.858 21.3582 12.5676 21 12.5676Z" fill="black"/>
</svg>
