<svg width="42" height="42" viewBox="0 0 42 42" fill="none" xmlns="http://www.w3.org/2000/svg">
<circle cx="21" cy="21" r="20.5" stroke="black"/>
<path d="M21.9395 8.39667C22.1647 7.94347 22.658 7.78862 23.0459 8.05039C23.4314 8.31503 23.5632 8.89494 23.338 9.34814L18.2085 19.7948H24.1906C24.6384 19.7948 25 20.2198 25 20.7462C25 20.9517 24.9449 21.1404 24.8515 21.2952L18.8072 33.6025C18.5868 34.0557 18.0935 34.2106 17.708 33.9516C17.32 33.6898 17.1883 33.1099 17.4087 32.6567L22.792 21.6977H16.8076C16.6711 21.6949 16.5322 21.6555 16.4029 21.5682C16.0173 21.3064 15.8856 20.7237 16.1083 20.2705L21.9395 8.39667Z" fill="black"/>
</svg>
