<svg width="122" height="122" viewBox="0 0 122 122" fill="none" xmlns="http://www.w3.org/2000/svg">
<g clip-path="url(#clip0_166_1352)">
<path d="M8.16175 56.6337L0.265564 55.5576L0.796677 51.6783C0.9032 50.9031 1.17626 50.3404 1.61585 49.9887C2.05545 49.6385 2.60906 49.5082 3.27371 49.598C3.61428 49.6444 3.90534 49.7761 4.14539 49.9946C4.38544 50.2132 4.54298 50.4676 4.61649 50.7594C4.70351 50.6023 4.80553 50.4571 4.92406 50.3239C5.04258 50.1907 5.18661 50.0815 5.35615 49.9961C5.52569 49.9108 5.71923 49.851 5.93827 49.8151C6.15732 49.7806 6.40937 49.7821 6.69443 49.821C7.41609 49.9198 7.9562 50.2386 8.31328 50.7789C8.67186 51.3192 8.78288 52.0869 8.64635 53.0837L8.16025 56.6307L8.16175 56.6337ZM1.8499 54.1538L3.56177 54.3872L3.84683 52.3114C3.93835 51.6469 3.6983 51.2758 3.12667 51.1979C2.82511 51.1575 2.59556 51.2129 2.43803 51.3641C2.28049 51.5152 2.17397 51.7861 2.12146 52.1722L1.8499 54.1538ZM7.32007 52.7724C7.37258 52.3922 7.30506 52.0809 7.12052 51.8385C6.93599 51.596 6.68093 51.4524 6.35536 51.4075C6.00729 51.3596 5.73873 51.4299 5.55119 51.6185C5.36365 51.8071 5.24513 52.0869 5.19411 52.4581L4.90455 54.5698L7.03351 54.8602L7.32007 52.7724Z" fill="#EE533F"/>
<path d="M9.54654 48.0818L1.92041 45.7725L3.62177 40.1812L4.95406 40.5852L3.72379 44.6291L5.35464 45.123L6.48738 41.3994L7.83167 41.8065L6.69893 45.5301L8.66285 46.1242L9.95012 41.8963L11.3049 42.3064L9.54804 48.0803L9.54654 48.0818Z" fill="#EE533F"/>
<path d="M9.00493 33.8327C8.62085 33.6905 8.28177 33.6905 7.99071 33.8327C7.69815 33.9749 7.4416 34.2772 7.21805 34.7352C6.80546 35.5823 6.89098 36.148 7.4746 36.4294C7.68315 36.5311 7.90069 36.5266 8.12724 36.4189C8.35379 36.3111 8.60734 36.0866 8.8894 35.7439C9.22098 35.3368 9.51504 34.9866 9.77309 34.6948C10.0311 34.4029 10.2892 34.1455 10.5488 33.9255C10.6898 33.7983 10.8443 33.689 11.0094 33.5962C11.1744 33.5035 11.3529 33.4436 11.5435 33.4152C11.734 33.3882 11.9456 33.3942 12.1751 33.4346C12.4047 33.475 12.6627 33.5648 12.9508 33.704C13.2958 33.8716 13.5674 34.0916 13.7639 34.364C13.9605 34.6364 14.091 34.9402 14.1555 35.2725C14.22 35.6062 14.22 35.9609 14.157 36.3381C14.094 36.7152 13.9725 37.0879 13.794 37.453C13.2868 38.4947 12.7047 39.1786 12.0461 39.5079C11.3874 39.8372 10.6553 39.8237 9.84961 39.469L10.5518 38.0262C10.9223 38.1969 11.2854 38.1879 11.638 38.0008C11.9921 37.8122 12.2756 37.4994 12.4887 37.0624C12.7197 36.588 12.8067 36.1884 12.7542 35.8591C12.7002 35.5314 12.5262 35.2964 12.2306 35.1527C12.1151 35.0974 12.0026 35.0599 11.8915 35.042C11.7805 35.024 11.665 35.036 11.5465 35.0809C11.4264 35.1258 11.3019 35.2036 11.1714 35.3189C11.0409 35.4326 10.8938 35.5927 10.7318 35.7978C10.3507 36.2872 10.0041 36.7032 9.69208 37.0445C9.38001 37.3857 9.07244 37.6431 8.76938 37.8152C8.46782 37.9888 8.16025 38.0756 7.84968 38.0741C7.53762 38.0741 7.18804 37.9799 6.79946 37.7913C6.5039 37.6491 6.25334 37.4605 6.0463 37.2271C5.83925 36.9936 5.69522 36.7197 5.61271 36.4039C5.53019 36.0896 5.51219 35.7409 5.5602 35.3608C5.60821 34.9806 5.74023 34.5676 5.95628 34.1216C6.16632 33.6905 6.41088 33.3299 6.68994 33.0395C6.969 32.7492 7.27206 32.5292 7.59763 32.381C7.9232 32.2328 8.26527 32.161 8.62235 32.1655C8.98092 32.17 9.3395 32.2508 9.69808 32.4079L9.00643 33.8297L9.00493 33.8327Z" fill="#EE533F"/>
<path d="M17.0421 31.2748L11.6335 27.5407L10.2667 29.5103L9.12195 28.72L12.8112 23.4041L13.956 24.1943L12.5832 26.1728L17.9918 29.9069L17.0421 31.2748Z" fill="#EE533F"/>
<path d="M17.5387 25.4037L16.619 24.6165L18.5575 22.3625L19.4772 23.1498L17.5387 25.4037Z" fill="#EE533F"/>
<path d="M23.4935 23.4176L17.9348 17.72L19.1306 16.5586L24.6893 22.2562L23.4935 23.4176Z" fill="#EE533F"/>
<path d="M30.4055 17.5688L24.4582 15.3598L27.6869 19.6192L26.4521 20.5501L21.6466 14.2074L23.0539 13.1463L28.6726 15.3194L25.5819 11.2411L26.8272 10.3027L31.6327 16.6454L30.407 17.5688H30.4055Z" fill="#EE533F"/>
<path d="M32.1189 12.796L31.5232 11.7424L34.1158 10.2832L34.7114 11.3368L32.1189 12.796Z" fill="#EE533F"/>
<path d="M43.7823 7.77206C43.8694 8.22703 43.8919 8.66105 43.8499 9.07262C43.8079 9.48419 43.6998 9.86733 43.5258 10.219C43.3518 10.5722 43.1132 10.885 42.8101 11.1604C42.5071 11.4358 42.1395 11.6588 41.7089 11.8309C41.2258 12.0225 40.7412 12.1212 40.2566 12.1242C39.772 12.1287 39.3114 12.027 38.8763 11.8219C38.4412 11.6169 38.0406 11.3101 37.6745 10.9015C37.3085 10.4929 36.9979 9.9691 36.7428 9.33154C36.4938 8.70894 36.3498 8.11479 36.3093 7.55056C36.2687 6.98634 36.3288 6.47299 36.4878 6.01054C36.6468 5.54808 36.9034 5.13801 37.2575 4.78331C37.6115 4.42861 38.0511 4.14575 38.5792 3.93473C39.0398 3.75214 39.4854 3.65336 39.916 3.64139C40.3466 3.62942 40.7457 3.68928 41.1133 3.82248C41.4809 3.95568 41.8094 4.15323 42.1005 4.41664C42.39 4.68004 42.6286 4.98835 42.8131 5.34454L41.2633 5.96115C40.9903 5.57951 40.6587 5.33107 40.2686 5.21583C39.8785 5.10059 39.4974 5.11706 39.1254 5.26522C38.4787 5.52264 38.0961 5.94319 37.9761 6.52837C37.8561 7.11355 37.9581 7.80948 38.2822 8.61765C38.6107 9.44079 39.0173 10.02 39.5004 10.3567C39.9835 10.6935 40.5267 10.7414 41.1283 10.5019C41.5889 10.3178 41.9099 10.0469 42.0885 9.68774C42.2685 9.32855 42.3165 8.89453 42.234 8.38567L43.7838 7.76907L43.7823 7.77206Z" fill="#EE533F"/>
<path d="M46.8505 9.75351L45.1161 1.99353L46.744 1.63135L48.1618 7.97702L52.0161 7.11945L52.3327 8.53376L46.8505 9.75351Z" fill="#EE533F"/>
<path d="M60.0068 7.8842L59.4142 6.27383L56.4781 6.43397L56.004 8.1027L54.2426 8.19849L56.6476 0.104763L58.577 0L61.8162 7.78542L60.0068 7.8842ZM57.6918 1.83486H57.6798L56.8336 5.0466L58.8591 4.93585L57.6918 1.83336V1.83486Z" fill="#EE533F"/>
<path d="M68.6981 2.81654C68.7026 2.40797 68.5886 2.08918 68.3561 1.8632C68.1235 1.63721 67.7529 1.49503 67.2428 1.43965C66.3051 1.33638 65.7995 1.60578 65.729 2.24932C65.7035 2.4798 65.78 2.68185 65.9571 2.85845C66.1356 3.03505 66.4327 3.19818 66.8512 3.34784C67.3464 3.52295 67.7769 3.68309 68.1385 3.82676C68.5016 3.97044 68.8302 4.12758 69.1257 4.2967C69.2923 4.3865 69.4483 4.49425 69.5908 4.61847C69.7334 4.74269 69.8504 4.88936 69.9404 5.05998C70.0304 5.23059 70.0949 5.43114 70.1339 5.66012C70.173 5.8891 70.1745 6.16299 70.14 6.48027C70.0979 6.86041 69.9809 7.18967 69.7904 7.46505C69.5983 7.74192 69.3568 7.96492 69.0642 8.13853C68.7717 8.31064 68.4356 8.43037 68.059 8.49771C67.6809 8.56506 67.2893 8.57554 66.8843 8.53214C65.7305 8.40492 64.8888 8.08764 64.3562 7.58029C63.8251 7.07293 63.5911 6.38 63.6556 5.50447L65.2549 5.67958C65.2174 6.08516 65.3479 6.4234 65.645 6.69129C65.9406 6.96068 66.3321 7.12232 66.8167 7.1747C67.3419 7.23307 67.7499 7.18069 68.041 7.02055C68.3321 6.86041 68.4956 6.61646 68.5316 6.2917C68.5451 6.16448 68.5421 6.04625 68.5226 5.9355C68.5031 5.82475 68.4521 5.72148 68.3696 5.6242C68.2871 5.52692 68.1715 5.43563 68.02 5.35032C67.8685 5.26501 67.6689 5.1812 67.4199 5.09739C66.8287 4.90433 66.3201 4.71725 65.894 4.53766C65.4665 4.35806 65.1214 4.15602 64.8558 3.93003C64.5903 3.70404 64.4057 3.44512 64.3022 3.15179C64.1972 2.85994 64.1687 2.49926 64.2167 2.06973C64.2527 1.74496 64.3457 1.44564 64.4972 1.17325C64.6473 0.900868 64.8588 0.673382 65.1274 0.489298C65.3974 0.30671 65.72 0.173511 66.0951 0.0897001C66.4702 0.00588935 66.9053 -0.00758024 67.3974 0.0462981C67.8745 0.0986798 68.2976 0.207933 68.6651 0.372561C69.0327 0.53719 69.3418 0.748213 69.5923 1.00414C69.8414 1.26006 70.0244 1.55788 70.14 1.89612C70.2555 2.23436 70.3005 2.59804 70.2735 2.98865L68.6981 2.81654Z" fill="#EE533F"/>
<path d="M77.9131 4.82205C77.9836 4.41946 77.9221 4.08721 77.7286 3.8268C77.535 3.56639 77.1915 3.36734 76.6979 3.23114C75.7887 2.97971 75.247 3.16529 75.073 3.78789C75.0115 4.01088 75.0535 4.2234 75.2005 4.42545C75.3476 4.62749 75.6161 4.83702 76.0047 5.05253C76.4653 5.30396 76.8644 5.53145 77.199 5.7305C77.5335 5.93105 77.8336 6.13758 78.0977 6.3516C78.2477 6.46833 78.3842 6.59854 78.5057 6.74371C78.6273 6.88888 78.7188 7.05351 78.7803 7.2361C78.8418 7.41869 78.8733 7.62672 78.8748 7.85869C78.8763 8.09067 78.8343 8.36156 78.7488 8.66836C78.6468 9.03803 78.4772 9.34334 78.2447 9.5843C78.0106 9.82675 77.7361 10.0093 77.4195 10.1321C77.1029 10.2548 76.7519 10.3206 76.3693 10.3251C75.9852 10.3311 75.5966 10.2787 75.2035 10.171C74.0858 9.86117 73.3056 9.41368 72.8615 8.82701C72.4189 8.24033 72.2989 7.52046 72.5045 6.66589L74.0543 7.09542C73.9523 7.49052 74.0258 7.84373 74.2763 8.15652C74.5254 8.46931 74.8855 8.69231 75.3551 8.82252C75.8637 8.9632 76.2748 8.97817 76.5883 8.86592C76.9019 8.75367 77.1029 8.53966 77.19 8.22536C77.2245 8.10264 77.2395 7.98441 77.238 7.87216C77.2365 7.75992 77.202 7.64917 77.1375 7.53991C77.0729 7.43066 76.9724 7.3229 76.8359 7.21365C76.6994 7.10589 76.5163 6.99065 76.2838 6.86793C75.7317 6.58208 75.2606 6.31717 74.8675 6.07173C74.4744 5.82628 74.1653 5.57186 73.9403 5.30546C73.7152 5.04056 73.5742 4.7547 73.5187 4.44939C73.4617 4.14408 73.4917 3.7834 73.6072 3.36883C73.6942 3.05305 73.8352 2.77318 74.0273 2.52773C74.2193 2.28229 74.4639 2.09221 74.7594 1.95453C75.055 1.81684 75.3956 1.73752 75.7797 1.71507C76.1637 1.69262 76.5943 1.74799 77.0729 1.87969C77.535 2.00691 77.9356 2.18201 78.2717 2.40501C78.6093 2.62651 78.8793 2.88393 79.0849 3.17726C79.2904 3.4706 79.4224 3.79238 79.4825 4.14408C79.5425 4.49579 79.5275 4.86246 79.4374 5.2441L77.9116 4.82205H77.9131Z" fill="#EE533F"/>
<path d="M88.8789 15.8776L90.6778 12.7946L87.9907 11.2351L86.1919 14.3197L84.7501 13.483L88.7589 6.61206L90.2007 7.44867L88.6914 10.0363L91.3785 11.5958L92.8878 9.00815L94.3401 9.85075L90.3313 16.7217L88.8789 15.8791V15.8776Z" fill="#EE533F"/>
<path d="M92.2682 18.0987L97.3288 11.9565L101.854 15.6667L100.97 16.7397L97.6963 14.0563L96.6146 15.3703L99.6288 17.8413L98.7376 18.9233L95.7234 16.4524L94.4197 18.0343L97.8404 20.8405L96.9417 21.9315L92.2682 18.1002V18.0987Z" fill="#EE533F"/>
<path d="M102.104 27.5437L103.016 26.089L101.089 23.874L99.4772 24.5235L98.3205 23.1945L106.203 20.1265L107.469 21.5827L103.291 28.9101L102.103 27.5452L102.104 27.5437ZM105.474 22.0092L105.466 22.0002L102.404 23.3038L103.734 24.8318L105.474 22.0092Z" fill="#EE533F"/>
<path d="M104.536 30.8677L110.029 27.2593L108.709 25.2599L109.871 24.4966L113.436 29.8964L112.273 30.6597L110.947 28.6497L105.454 32.2581L104.536 30.8677Z" fill="#EE533F"/>
<path d="M107.786 36.2961L114.916 32.7432L115.661 34.2323L108.532 37.7853L107.786 36.2961Z" fill="#EE533F"/>
<path d="M111.289 44.6457L115.193 39.6545L110.149 41.4414L109.631 39.9852L117.142 37.3242L117.733 38.9825L113.964 43.6714L118.794 41.9607L119.316 43.4274L111.805 46.0884L111.291 44.6442L111.289 44.6457Z" fill="#EE533F"/>
<path d="M113.409 54.2045L114.185 54.0399C113.822 53.9067 113.513 53.6463 113.258 53.2601C113.003 52.874 112.83 52.4086 112.739 51.8653C112.649 51.322 112.683 50.8132 112.842 50.3372C113.001 49.8613 113.252 49.4363 113.589 49.0591C113.928 48.6835 114.338 48.3707 114.819 48.1207C115.301 47.8708 115.814 47.7002 116.359 47.6104C116.935 47.5146 117.492 47.5071 118.029 47.5879C118.566 47.6688 119.05 47.8394 119.482 48.0983C119.915 48.3587 120.281 48.7104 120.578 49.1549C120.875 49.5994 121.077 50.1397 121.184 50.7772C121.262 51.2412 121.266 51.6872 121.2 52.1152C121.134 52.5433 121.007 52.9279 120.821 53.2706C120.635 53.6133 120.393 53.9037 120.096 54.1431C119.799 54.3826 119.457 54.5517 119.067 54.6475L118.791 52.9937C118.968 52.9399 119.13 52.8486 119.274 52.7199C119.418 52.5912 119.536 52.437 119.63 52.2604C119.721 52.0838 119.786 51.8847 119.822 51.6647C119.858 51.4447 119.858 51.2232 119.822 51.0032C119.711 50.3417 119.376 49.8538 118.816 49.538C118.257 49.2223 117.507 49.1429 116.567 49.2986C116.243 49.3525 115.925 49.4482 115.612 49.5844C115.298 49.7221 115.024 49.9002 114.789 50.1217C114.554 50.3432 114.377 50.6051 114.258 50.9074C114.138 51.2113 114.11 51.551 114.173 51.9296C114.218 52.1975 114.306 52.44 114.44 52.6555C114.573 52.8725 114.737 53.0536 114.932 53.1988C115.127 53.3439 115.34 53.4487 115.574 53.5101C115.808 53.5729 116.047 53.5834 116.291 53.543L116.002 51.8069L117.316 51.5884L117.862 54.86L113.636 55.5619L113.409 54.2045Z" fill="#EE533F"/>
<path d="M9.91672e-06 69.2515L7.82268 67.7339L8.57134 71.5772C8.72137 72.345 8.64485 72.9661 8.34179 73.439C8.03872 73.9119 7.55712 74.2128 6.89698 74.3415C6.55941 74.4073 6.24134 74.3744 5.94278 74.2457C5.64421 74.117 5.41316 73.9254 5.24963 73.6725C5.21812 73.8491 5.16861 74.0197 5.0981 74.1843C5.02758 74.3489 4.92706 74.4986 4.79503 74.6333C4.663 74.7695 4.49797 74.8877 4.30293 74.991C4.10639 75.0943 3.86783 75.1736 3.58427 75.2275C2.87012 75.3667 2.25499 75.2364 1.74188 74.8413C1.22877 74.4447 0.876197 73.7533 0.682655 72.7655L-0.00299072 69.2515H9.91672e-06ZM2.04194 72.6368C2.11546 73.0125 2.279 73.2864 2.53255 73.457C2.7861 73.6276 3.07416 73.6815 3.39523 73.6186C3.74031 73.5513 3.97136 73.3986 4.08838 73.1606C4.20541 72.9227 4.22791 72.6189 4.1559 72.2507L3.74781 70.1584L1.63836 70.567L2.04194 72.6353V72.6368ZM6.77545 69.5717L5.07859 69.901L5.47918 71.9573C5.6082 72.6159 5.95478 72.8897 6.5204 72.7805C6.81896 72.7221 7.01851 72.5964 7.11903 72.4018C7.21955 72.2073 7.23305 71.9184 7.15804 71.5338L6.77545 69.5717Z" fill="#EE533F"/>
<path d="M2.15897 78.7864L9.65006 76.073L11.65 81.5656L10.3417 82.04L8.8954 78.068L7.29306 78.6487L8.62534 82.3064L7.30506 82.7853L5.97278 79.1276L4.04337 79.8265L5.55569 83.9796L4.22491 84.4616L2.16047 78.7894L2.15897 78.7864Z" fill="#EE533F"/>
<path d="M12.6612 88.6388C13.0003 88.4083 13.1953 88.1329 13.2463 87.8127C13.2988 87.4924 13.2013 87.1093 12.9538 86.6618C12.4992 85.8356 11.9876 85.5797 11.4204 85.891C11.2164 86.0033 11.0949 86.1814 11.0514 86.4283C11.0093 86.6752 11.0454 87.012 11.1624 87.44C11.3034 87.9459 11.4189 88.3874 11.5089 88.766C11.599 89.1447 11.659 89.5038 11.6905 89.8421C11.7115 90.0307 11.713 90.2192 11.6935 90.4078C11.674 90.5964 11.62 90.776 11.5315 90.9466C11.4429 91.1187 11.3154 91.2848 11.1504 91.4495C10.9838 91.6126 10.7618 91.7712 10.4812 91.9254C10.1452 92.1095 9.80759 92.2038 9.47152 92.2053C9.13544 92.2068 8.81137 92.1379 8.50231 91.9987C8.19174 91.8595 7.90218 91.6545 7.62912 91.3836C7.35606 91.1127 7.12351 90.7999 6.92697 90.4437C6.36885 89.429 6.14531 88.5595 6.25633 87.8336C6.36735 87.1078 6.80095 86.5196 7.55711 86.0691L8.33127 87.4759C7.9772 87.6795 7.77465 87.9788 7.72514 88.3754C7.67413 88.772 7.76565 89.1836 8.0012 89.6101C8.25626 90.0711 8.53231 90.3749 8.83238 90.5216C9.13094 90.6667 9.425 90.6607 9.71307 90.5036C9.82559 90.4422 9.92011 90.3719 9.99963 90.2911C10.0791 90.2117 10.1347 90.11 10.1677 89.9873C10.2007 89.8645 10.2082 89.7164 10.1902 89.5443C10.1722 89.3721 10.1272 89.1596 10.0521 88.9097C9.8706 88.317 9.73257 87.7947 9.63355 87.3427C9.53603 86.8907 9.50302 86.4926 9.53603 86.1454C9.56904 85.7997 9.67556 85.5004 9.8556 85.246C10.0356 84.993 10.3147 84.7626 10.6928 84.5545C10.9808 84.3974 11.2794 84.3016 11.59 84.2672C11.9005 84.2342 12.2081 84.2747 12.5127 84.3899C12.8172 84.5051 13.1128 84.6922 13.3964 84.9511C13.6799 85.21 13.9425 85.5558 14.181 85.9898C14.4121 86.4088 14.5666 86.8174 14.6416 87.2125C14.7181 87.6076 14.7226 87.9803 14.6551 88.332C14.5876 88.6822 14.4496 89.0025 14.238 89.2913C14.0265 89.5802 13.7534 89.8256 13.4174 90.0277L12.6537 88.6433L12.6612 88.6388Z" fill="#EE533F"/>
<path d="M11.5405 97.0842L16.7721 93.1062L15.3168 91.2025L16.424 90.3599L20.3533 95.5022L19.2461 96.3448L17.7833 94.4307L12.5517 98.4087L11.5405 97.0857V97.0842Z" fill="#EE533F"/>
<path d="M17.2702 99.2692L18.1569 98.4446L20.1883 100.615L19.3016 101.439L17.2702 99.2692Z" fill="#EE533F"/>
<path d="M19.2311 105.64L24.5632 99.7317L25.8025 100.845L20.4704 106.754L19.2311 105.64Z" fill="#EE533F"/>
<path d="M27.0343 111.777L27.3238 105.452L24.2452 109.821L22.9789 108.933L27.5624 102.429L29.0057 103.44L28.6501 109.44L31.5968 105.257L32.8735 106.152L28.29 112.657L27.0328 111.775L27.0343 111.777Z" fill="#EE533F"/>
<path d="M32.554 111.519L33.1166 110.448L35.7541 111.824L35.1915 112.896L32.554 111.519Z" fill="#EE533F"/>
<path d="M44.243 116.884C44.0044 117.282 43.7313 117.621 43.4253 117.901C43.1192 118.18 42.7831 118.394 42.4186 118.543C42.054 118.691 41.6669 118.767 41.2558 118.77C40.8462 118.775 40.4231 118.697 39.9865 118.54C39.4974 118.362 39.0713 118.115 38.7068 117.794C38.3422 117.476 38.0661 117.095 37.8771 116.652C37.6896 116.211 37.595 115.716 37.595 115.168C37.595 114.62 37.7121 114.023 37.9476 113.378C38.1772 112.748 38.4652 112.209 38.8118 111.761C39.1584 111.314 39.5454 110.97 39.973 110.73C40.4006 110.491 40.8657 110.355 41.3653 110.325C41.8664 110.295 42.3841 110.376 42.9182 110.569C43.3848 110.738 43.7824 110.961 44.1109 111.238C44.4395 111.514 44.6975 111.824 44.8836 112.167C45.0696 112.51 45.1821 112.876 45.2242 113.266C45.2662 113.655 45.2362 114.044 45.1371 114.431L43.5693 113.863C43.6188 113.397 43.5378 112.992 43.3233 112.646C43.1087 112.3 42.8131 112.059 42.4366 111.923C41.7824 111.685 41.2153 111.745 40.7367 112.103C40.2566 112.46 39.8695 113.047 39.571 113.864C39.2679 114.696 39.1839 115.4 39.3204 115.971C39.4569 116.543 39.829 116.94 40.4381 117.161C40.9047 117.33 41.3248 117.341 41.6984 117.191C42.072 117.042 42.3976 116.75 42.6751 116.316L44.243 116.884Z" fill="#EE533F"/>
<path d="M46.4544 120.243L47.9787 112.439L49.6171 112.758L48.3703 119.14L52.2456 119.893L51.9681 121.314L46.4544 120.243Z" fill="#EE533F"/>
<path d="M60.775 121.936L60.3294 120.279L57.3902 120.174L56.7676 121.793L55.0047 121.731L58.1329 113.887L60.0638 113.956L62.5858 122L60.775 121.936ZM59.0166 115.702H59.0046L57.8718 118.824L59.8988 118.896L59.0166 115.702Z" fill="#EE533F"/>
<path d="M69.2923 115.701C69.2022 115.301 69.0177 115.018 68.7386 114.852C68.4596 114.686 68.0665 114.634 67.5579 114.696C66.6202 114.813 66.1926 115.192 66.2721 115.832C66.3006 116.063 66.4222 116.242 66.6352 116.373C66.8482 116.503 67.1768 116.593 67.6179 116.644C68.14 116.699 68.5946 116.756 68.9817 116.813C69.3673 116.87 69.7244 116.946 70.0499 117.042C70.233 117.091 70.41 117.16 70.578 117.248C70.7461 117.337 70.8931 117.453 71.0206 117.597C71.1482 117.742 71.2562 117.922 71.3477 118.136C71.4392 118.35 71.5037 118.615 71.5442 118.932C71.5922 119.312 71.5532 119.659 71.4317 119.972C71.3087 120.285 71.1257 120.559 70.8811 120.794C70.6365 121.029 70.338 121.223 69.9854 121.376C69.6328 121.529 69.2548 121.629 68.8497 121.68C67.6974 121.822 66.8047 121.708 66.1701 121.335C65.5355 120.964 65.1469 120.345 65.0074 119.477L66.6037 119.279C66.6622 119.682 66.8662 119.981 67.2173 120.174C67.5684 120.367 67.9855 120.435 68.4701 120.375C68.9937 120.31 69.3793 120.165 69.6253 119.942C69.8714 119.719 69.9749 119.444 69.9344 119.119C69.9179 118.992 69.8879 118.878 69.8429 118.775C69.7979 118.672 69.7244 118.583 69.6223 118.507C69.5203 118.431 69.3853 118.369 69.2187 118.321C69.0522 118.273 68.8377 118.237 68.5766 118.214C67.957 118.161 67.4199 118.097 66.9623 118.022C66.5062 117.946 66.1221 117.829 65.8115 117.67C65.501 117.512 65.2624 117.302 65.0929 117.042C64.9233 116.781 64.8123 116.437 64.7583 116.009C64.7178 115.684 64.7388 115.371 64.8228 115.072C64.9068 114.773 65.0584 114.502 65.2789 114.261C65.4995 114.02 65.7815 113.816 66.1281 113.649C66.4732 113.481 66.8933 113.367 67.3854 113.306C67.8625 113.248 68.2975 113.255 68.6951 113.332C69.0912 113.408 69.4408 113.541 69.7424 113.733C70.0439 113.924 70.2915 114.171 70.482 114.473C70.6726 114.776 70.8001 115.12 70.8646 115.506L69.2923 115.701Z" fill="#EE533F"/>
<path d="M77.8321 113.718C77.6806 113.337 77.4525 113.088 77.151 112.966C76.8494 112.847 76.4518 112.857 75.9612 112.999C75.055 113.261 74.6905 113.703 74.872 114.324C74.9365 114.547 75.085 114.705 75.3161 114.8C75.5471 114.895 75.8862 114.933 76.3303 114.912C76.8554 114.885 77.313 114.869 77.7031 114.864C78.0932 114.86 78.4578 114.879 78.7953 114.922C78.9844 114.942 79.1689 114.982 79.3489 115.042C79.529 115.102 79.6925 115.195 79.841 115.318C79.9896 115.442 80.1246 115.6 80.2491 115.798C80.3722 115.995 80.4802 116.247 80.5687 116.554C80.6752 116.922 80.6932 117.271 80.6227 117.598C80.5522 117.926 80.4142 118.225 80.2086 118.496C80.0046 118.767 79.7405 119.005 79.4165 119.212C79.0924 119.418 78.7353 119.577 78.3437 119.691C77.229 120.012 76.3288 120.041 75.6432 119.773C74.9575 119.507 74.4759 118.956 74.2013 118.121L75.7452 117.675C75.8667 118.064 76.1158 118.326 76.4923 118.462C76.8689 118.598 77.292 118.598 77.7616 118.462C78.2687 118.315 78.6258 118.112 78.8343 117.853C79.0414 117.594 79.0999 117.307 79.0084 116.992C78.9724 116.87 78.9244 116.76 78.8643 116.666C78.8028 116.572 78.7158 116.495 78.6033 116.435C78.4908 116.377 78.3467 116.337 78.1742 116.316C78.0017 116.295 77.7841 116.293 77.5231 116.311C76.9034 116.358 76.3618 116.379 75.8982 116.376C75.4346 116.373 75.037 116.317 74.7055 116.209C74.3739 116.102 74.1038 115.933 73.8953 115.702C73.6867 115.472 73.5217 115.15 73.4017 114.735C73.3102 114.421 73.2816 114.11 73.3177 113.8C73.3522 113.49 73.4602 113.2 73.6387 112.927C73.8173 112.655 74.0648 112.41 74.3799 112.19C74.695 111.97 75.091 111.79 75.5666 111.654C76.0272 111.521 76.4608 111.461 76.8629 111.473C77.2665 111.485 77.6326 111.562 77.9611 111.703C78.2897 111.845 78.5718 112.05 78.8088 112.318C79.0444 112.586 79.2259 112.906 79.3504 113.278L77.8291 113.718H77.8321Z" fill="#EE533F"/>
<path d="M93.4639 112.627L91.6456 109.554L88.969 111.13L90.7874 114.203L89.3501 115.048L85.2992 108.201L86.7365 107.356L88.2608 109.933L90.9374 108.357L89.4116 105.78L90.8594 104.928L94.9102 111.775L93.4624 112.627H93.4639Z" fill="#EE533F"/>
<path d="M97.7548 109.753L92.6883 103.615L97.2102 99.9009L98.0954 100.972L94.8247 103.659L95.908 104.971L98.9191 102.498L99.8118 103.58L96.8006 106.053L98.1059 107.634L101.525 104.826L102.425 105.917L97.7548 109.753Z" fill="#EE533F"/>
<path d="M108.449 99.5191L106.881 98.8142L104.941 101.019L105.806 102.524L104.641 103.847L100.529 96.4705L101.804 95.0217L109.646 98.1601L108.451 99.5191H108.449ZM102.497 96.9359L102.49 96.9449L104.199 99.7945L105.537 98.2739L102.499 96.9359H102.497Z" fill="#EE533F"/>
<path d="M111.472 95.4857L106.014 91.8235L104.674 93.811L103.519 93.0358L107.138 87.6719L108.293 88.4471L106.946 90.4436L112.402 94.1058L111.471 95.4872L111.472 95.4857Z" fill="#EE533F"/>
<path d="M115.202 89.3826L108.116 85.7443L108.88 84.2642L115.966 87.9024L115.202 89.3826Z" fill="#EE533F"/>
<path d="M119.155 80.2861L112.953 81.6255L117.975 83.4754L117.438 84.9241L109.961 82.1688L110.574 80.518L116.479 79.3252L111.672 77.5532L112.212 76.0925L119.688 78.8478L119.155 80.2861Z" fill="#EE533F"/>
<path d="M121.749 69.5808L120.963 69.473C121.259 69.723 121.461 70.0717 121.569 70.5222C121.677 70.9726 121.68 71.468 121.581 72.0098C121.481 72.5516 121.274 73.0185 120.962 73.4121C120.65 73.8057 120.269 74.12 119.823 74.3595C119.376 74.5975 118.884 74.7531 118.345 74.8234C117.807 74.8938 117.267 74.8803 116.723 74.78C116.149 74.6738 115.624 74.4927 115.147 74.2338C114.669 73.9749 114.272 73.6501 113.954 73.2595C113.636 72.8674 113.412 72.4124 113.285 71.8946C113.157 71.3767 113.151 70.799 113.27 70.163C113.355 69.7005 113.502 69.2785 113.711 68.8983C113.919 68.5182 114.17 68.1994 114.462 67.9405C114.755 67.6816 115.081 67.49 115.442 67.3658C115.802 67.2416 116.183 67.1997 116.582 67.2416L116.278 68.8893C116.093 68.8789 115.91 68.9103 115.73 68.9836C115.55 69.0555 115.387 69.1602 115.24 69.2949C115.093 69.4296 114.965 69.5958 114.855 69.7903C114.746 69.9849 114.671 70.1929 114.63 70.4129C114.509 71.0729 114.657 71.6461 115.075 72.1325C115.493 72.6189 116.17 72.9497 117.106 73.1218C117.429 73.1817 117.762 73.1996 118.102 73.1772C118.444 73.1547 118.762 73.0799 119.059 72.9512C119.356 72.8225 119.612 72.6369 119.828 72.3929C120.044 72.149 120.186 71.8377 120.257 71.462C120.306 71.1956 120.305 70.9367 120.254 70.6883C120.203 70.4398 120.11 70.2139 119.976 70.0103C119.843 69.8068 119.678 69.6362 119.479 69.4985C119.281 69.3608 119.059 69.2695 118.816 69.2246L118.497 70.9547L117.187 70.7137L117.79 67.4526L122.005 68.2278L121.754 69.5823L121.749 69.5808Z" fill="#EE533F"/>
<path d="M60.925 108.099C48.2083 108.099 36.2522 103.159 27.2608 94.1898C18.2679 85.2206 13.3168 73.294 13.3168 60.6087C13.3168 47.9233 18.2694 35.9968 27.2608 27.0275C36.2522 18.0568 48.2083 13.1179 60.925 13.1179C73.6417 13.1179 85.5977 18.0583 94.5891 27.0275C103.581 35.9968 108.533 47.9233 108.533 60.6087C108.533 73.294 103.581 85.2206 94.5891 94.1898C85.5977 103.159 73.6417 108.099 60.925 108.099ZM60.925 15.2117C48.7694 15.2117 37.3415 19.9335 28.7461 28.5077C20.1508 37.0818 15.4173 48.4816 15.4173 60.6072C15.4173 72.7328 20.1508 84.1326 28.7461 92.7067C37.3415 101.281 48.7694 106.003 60.925 106.003C73.0806 106.003 84.5085 101.281 93.1038 92.7067C101.699 84.1326 106.433 72.7328 106.433 60.6072C106.433 48.4816 101.699 37.0818 93.1038 28.5077C84.5085 19.9335 73.0806 15.2117 60.925 15.2117Z" fill="#EE533F"/>
<path d="M3.10117 64.868C4.28028 64.868 5.23613 63.9145 5.23613 62.7383C5.23613 61.5621 4.28028 60.6086 3.10117 60.6086C1.92207 60.6086 0.966217 61.5621 0.966217 62.7383C0.966217 63.9145 1.92207 64.868 3.10117 64.868Z" fill="#EE533F"/>
<path d="M117.754 63.6632C118.933 63.6632 119.889 62.7097 119.889 61.5335C119.889 60.3573 118.933 59.4038 117.754 59.4038C116.575 59.4038 115.619 60.3573 115.619 61.5335C115.619 62.7097 116.575 63.6632 117.754 63.6632Z" fill="#EE533F"/>
<path d="M44.747 51.4538C44.3855 47.6554 46.1513 43.9677 49.3395 41.8605C50.4003 41.3097 50.8128 40.0061 50.2607 38.948C49.7191 37.9094 48.4453 37.4903 47.3906 38.0037C42.7306 40.8353 40.0405 46.0226 40.4186 51.4523C40.4921 55.3375 41.5634 59.1404 43.5333 62.4929C45.1821 65.2541 46.0973 68.3895 46.1904 71.6028C46.5609 75.3982 44.7981 79.0889 41.6069 81.1901C40.5387 81.7244 40.1066 83.022 40.6437 84.0891C41.1793 85.1547 42.4801 85.5857 43.5498 85.0499C48.2098 82.2183 50.8969 77.0325 50.5203 71.6028C50.4468 67.7176 49.3755 63.9147 47.4056 60.5607C45.7568 57.7995 44.8416 54.664 44.7486 51.4508L44.747 51.4538Z" fill="#EE533F"/>
<path d="M76.2643 60.5652C74.6154 57.8039 73.7002 54.6685 73.6072 51.4552C73.2456 47.6568 75.0115 43.9691 78.1997 41.8619C79.2619 41.3141 79.6775 40.0106 79.1269 38.9525C78.5853 37.9078 77.3055 37.4888 76.2478 38.0081C71.5878 40.8397 68.9007 46.0255 69.2773 51.4552C69.3508 55.3405 70.422 59.1434 72.3919 62.4958C74.0408 65.2571 74.956 68.3925 75.049 71.6057C75.4196 75.4012 73.6567 79.0918 70.4655 81.1931C69.3973 81.7274 68.9652 83.0249 69.5023 84.092C70.0379 85.1576 71.3387 85.5886 72.4085 85.0529C77.0684 82.2213 79.7555 77.0355 79.3789 71.6057C79.3054 67.7205 78.2342 63.9176 76.2643 60.5637V60.5652Z" fill="#EE533F"/>
<path d="M59.1771 51.4537C58.8155 47.6553 60.5814 43.9676 63.7696 41.8604C64.8303 41.3096 65.2429 40.0061 64.6908 38.948C64.1492 37.9093 62.8754 37.4903 61.8192 38.0051C57.1592 40.8367 54.4706 46.0225 54.8487 51.4537C54.9222 55.339 55.9934 59.1419 57.9634 62.4943C59.6122 65.2556 60.5274 68.391 60.6204 71.6042C60.991 75.3997 59.2281 79.0903 56.037 81.1916C54.9687 81.7259 54.5366 83.0234 55.0737 84.0905C55.6109 85.1576 56.9101 85.5872 57.9799 85.0514C62.6399 82.2198 65.3269 77.034 64.9504 71.6042C64.8768 67.719 63.8056 63.9161 61.8357 60.5622C60.1868 57.8009 59.2716 54.6655 59.1786 51.4522L59.1771 51.4537Z" fill="#EE533F"/>
</g>
<defs>
<clipPath id="clip0_166_1352">
<rect width="122" height="122" fill="white"/>
</clipPath>
</defs>
</svg>
