<svg width="16" height="15" viewBox="0 0 16 15" fill="none" xmlns="http://www.w3.org/2000/svg">
<path fill-rule="evenodd" clip-rule="evenodd" d="M7.46958 0C3.35694 0 0 3.37061 0 7.5C0 11.6294 3.35694 15 7.46958 15C11.5822 15 14.9392 11.6294 14.9392 7.5C14.9392 6.66823 14.7965 5.86955 14.5453 5.12068C13.9474 5.72101 13.3846 6.28598 12.7717 6.90151C12.7918 7.09791 12.805 7.29757 12.805 7.5C12.805 10.4713 10.4289 12.8571 7.46958 12.8571C4.51036 12.8571 2.13417 10.4713 2.13417 7.5C2.13417 4.52868 4.51036 2.14286 7.46958 2.14286C8.60832 2.14286 9.65697 2.50161 10.5208 3.10547C11.0431 2.58086 11.5323 2.08988 12.038 1.58203C10.7727 0.594076 9.18945 0 7.46958 0ZM14.4932 0.634068C12.3633 2.77277 9.59524 5.55173 7.46542 7.69043C6.75543 6.97752 6.04536 6.26467 5.33542 5.55176L3.83066 7.06473C5.04256 8.28169 6.25352 9.49733 7.46542 10.7143C10.0972 8.07155 13.3682 4.78769 16 2.14495L14.4932 0.634068Z" fill="#EE533F"/>
</svg>
