<svg width="1440" height="427" viewBox="0 0 1440 427" fill="none" xmlns="http://www.w3.org/2000/svg">
<g clip-path="url(#clip0_1443_7435)">
<mask id="mask0_1443_7435" style="mask-type:luminance" maskUnits="userSpaceOnUse" x="0" y="-507" width="1440" height="1440">
<path d="M0 -507H1440V933H0V-507Z" fill="white"/>
</mask>
<g mask="url(#mask0_1443_7435)">
<path d="M795.896 269.464H732.185L716.838 311.802H748.626L756.298 290.702H788.086L777.81 319.063C776.256 323.358 773.676 326.76 770.069 329.27C766.46 331.784 762.372 333.039 757.806 333.039H677.242L703 262.203C704.552 257.91 707.132 254.508 710.742 251.994C714.349 249.484 718.436 248.227 723.004 248.227H803.569L795.896 269.464Z" fill="black"/>
</g>
<mask id="mask1_1443_7435" style="mask-type:luminance" maskUnits="userSpaceOnUse" x="0" y="-507" width="1440" height="1440">
<path d="M0 -507H1440V933H0V-507Z" fill="white"/>
</mask>
<g mask="url(#mask1_1443_7435)">
<path d="M907.153 269.464H843.443L839.605 280.426H892.629L885.641 298.1H832.619L828.096 311.802H891.671L883.999 333.039H788.5L819.328 248.227H914.827L907.153 269.464Z" fill="black"/>
</g>
<mask id="mask2_1443_7435" style="mask-type:luminance" maskUnits="userSpaceOnUse" x="0" y="-507" width="1440" height="1440">
<path d="M0 -507H1440V933H0V-507Z" fill="white"/>
</mask>
<g mask="url(#mask2_1443_7435)">
<path d="M954.693 269.464L947.019 290.702H978.806L986.479 269.464H954.693ZM899.75 333.039L925.507 262.203C927.059 257.91 929.639 254.508 933.25 251.994C936.857 249.484 940.943 248.227 945.511 248.227H1026.08L995.249 333.039H963.325L971.134 311.802H939.346L931.537 333.039H899.75Z" fill="black"/>
</g>
<mask id="mask3_1443_7435" style="mask-type:luminance" maskUnits="userSpaceOnUse" x="0" y="-507" width="1440" height="1440">
<path d="M0 -507H1440V933H0V-507Z" fill="white"/>
</mask>
<g mask="url(#mask3_1443_7435)">
<path d="M1065.13 269.464L1060.2 282.891H1094.31L1099.25 269.464H1065.13ZM1011.01 333.039L1041.84 248.227H1122.13C1125.78 248.227 1128.66 249.734 1130.76 252.748C1132.86 255.763 1133.27 259.006 1131.99 262.476L1122.95 287.275C1121.39 291.57 1118.81 294.972 1115.21 297.484C1111.6 299.996 1107.55 301.251 1103.08 301.251H1100.75L1116.92 333.039H1085.13L1068.97 301.251H1054.3L1042.79 333.039H1011.01Z" fill="black"/>
</g>
<mask id="mask4_1443_7435" style="mask-type:luminance" maskUnits="userSpaceOnUse" x="0" y="-507" width="1440" height="1440">
<path d="M0 -507H1440V933H0V-507Z" fill="white"/>
</mask>
<g mask="url(#mask4_1443_7435)">
<path d="M431.657 144.606H344.59L339.348 159.023H405.63C410.622 159.023 414.585 161.082 417.52 165.202C420.452 169.322 421.045 173.754 419.298 178.495L406.941 212.574C404.817 218.442 401.293 223.059 396.362 226.428C391.429 229.8 385.845 231.484 379.604 231.484H269.508L279.993 202.463H367.06L372.301 188.046H306.018C301.025 188.046 297.061 185.986 294.129 181.866C291.194 177.747 290.601 173.318 292.35 168.572L304.708 134.682C306.829 128.816 310.354 124.167 315.288 120.732C320.217 117.3 325.801 115.583 332.045 115.583H442.142L431.657 144.606Z" fill="#FF6600"/>
</g>
<mask id="mask5_1443_7435" style="mask-type:luminance" maskUnits="userSpaceOnUse" x="0" y="-507" width="1440" height="1440">
<path d="M0 -507H1440V933H0V-507Z" fill="white"/>
</mask>
<g mask="url(#mask5_1443_7435)">
<path d="M649.788 115.77L618.144 202.65H687.048L676.563 231.484H564.219L606.348 115.77H649.788Z" fill="#FF6600"/>
</g>
<mask id="mask6_1443_7435" style="mask-type:luminance" maskUnits="userSpaceOnUse" x="0" y="-507" width="1440" height="1440">
<path d="M0 -507H1440V933H0V-507Z" fill="white"/>
</mask>
<g mask="url(#mask6_1443_7435)">
<path d="M765.217 144.606L754.731 173.628H798.171L808.655 144.606H765.217ZM690.133 231.484L725.334 134.682C727.455 128.816 730.981 124.167 735.913 120.732C740.843 117.3 746.427 115.583 752.671 115.583H862.769L820.639 231.484H777.013L787.686 202.463H744.245L733.574 231.484H690.133Z" fill="#FF6600"/>
</g>
<mask id="mask7_1443_7435" style="mask-type:luminance" maskUnits="userSpaceOnUse" x="0" y="-507" width="1440" height="1440">
<path d="M0 -507H1440V933H0V-507Z" fill="white"/>
</mask>
<g mask="url(#mask7_1443_7435)">
<path d="M841.82 231.484L883.95 115.583H927.575L949.858 173.627L971.015 115.583H1014.46L972.327 231.484H928.699L906.418 173.627L885.26 231.484H841.82Z" fill="#FF6600"/>
</g>
<mask id="mask8_1443_7435" style="mask-type:luminance" maskUnits="userSpaceOnUse" x="0" y="-507" width="1440" height="1440">
<path d="M0 -507H1440V933H0V-507Z" fill="white"/>
</mask>
<g mask="url(#mask8_1443_7435)">
<path d="M1067.61 144.606L1057.12 173.628H1100.56L1111.05 144.606H1067.61ZM992.523 231.484L1027.72 134.682C1029.85 128.816 1033.37 124.167 1038.3 120.732C1043.23 117.3 1048.82 115.583 1055.06 115.583H1165.16L1123.03 231.484H1079.4L1090.08 202.463H1046.64L1035.96 231.484H992.523Z" fill="#FF6600"/>
</g>
<mask id="mask9_1443_7435" style="mask-type:luminance" maskUnits="userSpaceOnUse" x="0" y="-507" width="1440" height="1440">
<path d="M0 -507H1440V933H0V-507Z" fill="white"/>
</mask>
<g mask="url(#mask9_1443_7435)">
<path d="M566.463 115.707C568.644 127.448 566.694 138.891 560.69 148.727C552.874 161.531 539.227 170.19 522.832 172.856L512.003 202.483H472.91L485.46 168.147L486.268 165.952C472.426 158.495 461.931 140.103 459.575 125.51C458.894 126.283 458.259 127.091 457.692 127.946C456.262 130 455.107 132.275 454.206 134.78L419.039 231.484H524.715C530.822 231.484 536.34 229.764 541.271 226.335C546.188 222.907 549.71 218.266 551.835 212.4L587.002 115.707H566.463Z" fill="black"/>
</g>
<mask id="mask10_1443_7435" style="mask-type:luminance" maskUnits="userSpaceOnUse" x="0" y="-507" width="1440" height="1440">
<path d="M0 -507H1440V933H0V-507Z" fill="white"/>
</mask>
<g mask="url(#mask10_1443_7435)">
<path d="M551.583 133.766C551.11 135.002 551.029 136.653 549.355 136.93C551.029 127.543 545.165 121.666 540.154 115.282C537.221 111.553 534.589 107.65 533.885 102.766C532.938 96.1965 533.989 88.1965 538.053 82.8739C539.622 95.4472 548.558 104.545 552.091 115.282C553.915 120.778 554.309 126.711 551.583 133.766ZM563.267 115.282C562.679 112.395 561.801 109.451 560.635 106.473C557.171 97.6752 550.163 90.6552 547.67 81.1072C545.545 73.0019 546.157 64.5619 547.381 56.3299C540.881 57.9699 535.397 63.3272 531.795 68.7645C530.641 70.4965 531.414 73.1405 529.474 73.1405C529.254 73.1405 529.001 73.1059 528.713 73.0259C530.629 55.2565 524.106 33.5632 507.099 24.8805C511.429 44.5192 494.306 57.4045 485.925 73.0139C477.901 87.9765 477.022 100.619 480.602 115.363C481.375 118.514 482.346 121.747 483.489 125.13C483.373 125.257 483.223 125.303 483.05 125.303C481.802 125.303 479.205 122.417 478.558 121.713C477.093 120.131 475.799 118.342 474.679 116.402C471.03 110.179 469.102 102.501 468.745 95.6432C463.607 101.774 462.361 113.458 462.983 121.562C463.018 122.025 463.065 122.498 463.122 122.971C464.727 136.71 474.945 155.783 488.569 163.334C492.286 165.413 496.27 166.613 500.391 166.613C502.966 166.613 505.598 166.151 508.254 165.135C518.298 161.29 516.854 152.909 512.559 144.273C508.703 136.502 502.515 128.535 500.345 123.514C499.155 120.789 498.151 118.03 497.354 115.282C492.425 98.4259 495.069 81.5339 509.558 69.1112C509.87 69.0885 510.123 69.0765 510.321 69.0765C511.786 69.0765 510.517 69.6885 510.251 70.7965C507.699 81.3845 505.517 85.5632 509.558 96.6125C512.155 103.725 517.651 109.578 523.343 115.282C533.042 125.003 543.317 134.274 540.835 148.567C540.627 149.779 540.107 153.497 538.549 153.625C535.997 142.737 528.158 133.454 517.905 129.067L525.537 143.534C525.618 143.787 525.698 144.03 525.767 144.273C528.827 153.947 527.465 161.198 519.857 168.367C522.015 168.149 524.129 167.825 526.183 167.386C551.503 162.063 568.509 140.935 563.267 115.282Z" fill="#FF6600"/>
</g>
</g>
<defs>
<clipPath id="clip0_1443_7435">
<rect width="1440" height="427" fill="white"/>
</clipPath>
</defs>
</svg>
